<?xml version="1.0" encoding="UTF-8"?>
<svg id="Capa_1" data-name="Capa 1" xmlns="http://www.w3.org/2000/svg" viewBox="0 0 1000 1000">
  <defs>
    <style>
      .cls-1 {
        fill: #576c75;
      }
    </style>
  </defs>
  <path class="cls-1" d="M854.47,186.76c-51.63-38.08-125.07-57.11-220.27-57.11h-230.7v9.87c15.37,7.33,26.53,19.6,33.5,36.8,6.96,17.22,10.44,42.68,10.44,76.35v494.36c0,34.44-3.48,60.06-10.44,76.92-2.54,6.13-5.64,11.61-9.28,16.47h-27.93c-68.83,0-122.3-15.75-160.4-47.24-38.08-31.49-57.12-79.83-57.12-145.02,0-128.9,74.7-198.48,224.11-208.73v-10.98c-16.85-2.93-35.88-4.4-57.13-4.4-60.04.73-110.96,11-152.7,30.77-41.75,19.78-73.61,46.31-95.58,79.64-21.97,33.33-32.96,73.06-32.96,119.19,0,68.12,25.82,121.21,77.45,159.31,51.63,38.08,125.07,57.11,220.27,57.11h227.81v-9.89c-19.05-8.78-31.13-23.42-36.25-43.93-5.13-20.51-7.69-43.57-7.69-69.23V159.31h50.53c68.83,0,122.3,15.75,160.4,47.24,38.08,31.49,57.12,79.83,57.12,145.02,0,128.9-74.7,198.48-224.11,208.73v10.98c16.85,2.93,35.88,4.4,57.13,4.4,60.04-.73,110.96-11,152.7-30.77,41.75-19.78,73.61-46.31,95.58-79.64,21.97-33.33,32.96-73.06,32.96-119.19,0-68.12-25.82-121.21-77.45-159.31Z"/>
</svg>