<?xml version="1.0" encoding="UTF-8"?>
<svg id="Capa_1" data-name="Capa 1" xmlns="http://www.w3.org/2000/svg" viewBox="0 0 3000 1097.11">
  <defs>
    <style>
      .cls-1 {
        fill: #f2efea;
      }
    </style>
  </defs>
  <path class="cls-1" d="M1409.4,294.59h49.03c13.56,0,24.67-3.76,33.35-11.27,10.14-8.75,15.21-21.19,15.21-37.29s-5.07-28.66-15.21-37.41c-8.99-7.44-20.11-11.15-33.35-11.15h-56.11c-2.49,0-4.31.56-5.47,1.69-1.16,1.12-1.74,2.96-1.74,5.52v155.8h14.28v-65.88ZM1409.4,204.66h41.95c11.62,0,21.02,3.14,28.23,9.41,8.76,7.59,13.14,18.24,13.14,31.95s-4.37,24.24-13.14,31.83c-7.27,6.35-16.69,9.53-28.23,9.53h-41.95v-82.72Z"/>
  <path class="cls-1" d="M1716.81,352.33c1.16,2.48,2.61,4.46,4.35,5.93,1.75,1.47,4.21,2.21,7.38,2.21h8.02l-32.3-74.94c5.73-1.55,11.03-4.42,15.91-8.6,9.38-8.21,14.07-19.71,14.07-34.51s-4.69-26.3-14.07-34.51c-7.97-6.97-18.27-10.46-30.91-10.46h-59.72c-2.47,0-4.29.56-5.45,1.69-1.16,1.12-1.75,2.96-1.75,5.52v155.8h14.3v-73.08h52.39l27.77,64.95ZM1636.64,280.3v-75.64h47.87c9.13,0,17,2.9,23.58,8.71,7.9,6.66,11.85,16.34,11.85,29.05s-3.95,22.23-11.85,29.05c-6.97,5.88-14.83,8.83-23.58,8.83h-47.87Z"/>
  <path class="cls-1" d="M1853.64,199.14c-1.16,1.12-1.75,2.96-1.75,5.52v155.8h14.3v-163.01h-7.09c-2.47,0-4.29.56-5.45,1.69Z"/>
  <path class="cls-1" d="M2151.64,360.46h7.08l-22.77-163.01h-5.45c-3.8,0-6.36,1.82-7.67,5.46l-52.28,142.09-54.96-147.55h-5.58c-3.55,0-5.69,1.98-6.38,5.93l-22.07,157.08h7.31l19.75-141.05,50.19,135.35c.7,2.02,1.65,3.46,2.84,4.35,1.2.9,2.97,1.34,5.29,1.34h5.24l52.62-141.4,18.71,134.31c.7,4.72,3.4,7.09,8.13,7.09Z"/>
  <path class="cls-1" d="M2371.66,356.86c0-2.32-1.2-3.49-3.59-3.49h-79.7v-70.76h71.45v-7.09h-71.45v-70.87h78.54v-7.2h-85.63c-2.47,0-4.29.56-5.45,1.69-1.16,1.12-1.75,2.96-1.75,5.52v155.8h97.59v-3.6Z"/>
  <path class="cls-1" d="M1478.89,473.44c20.22,0,36.86,6.66,49.96,19.98,4.41,4.41,8.17,9.64,11.26,15.68.08.08.16.23.23.46.63,1.24,1.19,2.23,1.68,2.96.51.74,1.56,1.55,3.14,2.45,1.59.89,3.47,1.33,5.63,1.33h6.63c-4.65-12.32-11.7-22.54-21.15-30.67-14.87-12.86-34.09-19.29-57.63-19.29s-42.25,6.58-57.29,19.75c-17.5,15.1-26.26,36.6-26.26,64.48.23,27.88,9.14,49.3,26.72,64.25,14.57,12.78,33.73,19.17,57.52,19.17s42.36-6.58,57.39-19.75c9.36-7.98,16.27-18.05,20.68-30.21h-14.3c-3.4,8.91-8.17,16.54-14.28,22.89-13.09,13.32-29.74,19.98-49.96,19.98s-36.65-6.66-49.73-19.98c-13.18-13.17-19.75-31.95-19.75-56.35s6.57-43.99,19.75-57.16c13.08-13.32,29.66-19.98,49.73-19.98Z"/>
  <path class="cls-1" d="M1727.26,468.68c-3.88,0-6.67,1.9-8.37,5.69l-66.81,157.31h7.79l63.31-149.18,60.42,141.86c2.49,4.88,6.12,7.32,10.92,7.32h7.67l-69.25-163.01h-5.69Z"/>
  <path class="cls-1" d="M1924.64,565.81h49.03c13.55,0,24.67-3.76,33.34-11.27,10.16-8.76,15.23-21.19,15.23-37.3s-5.07-28.66-15.23-37.41c-8.98-7.44-20.09-11.15-33.34-11.15h-56.12c-2.47,0-4.29.56-5.45,1.69-1.16,1.12-1.75,2.96-1.75,5.52v155.8h14.3v-65.88ZM1924.64,475.88h41.94c11.62,0,21.04,3.14,28.24,9.41,8.75,7.59,13.12,18.24,13.12,31.95s-4.37,24.24-13.12,31.83c-7.28,6.35-16.69,9.53-28.24,9.53h-41.94v-82.72Z"/>
  <path class="cls-1" d="M2139.32,470.37c-1.16,1.12-1.74,2.96-1.74,5.52v155.8h14.28v-163.01h-7.08c-2.49,0-4.31.56-5.47,1.69Z"/>
  <path class="cls-1" d="M2264.66,472.28v3.6h54.72v155.8h14.3v-155.8h54.72v-7.2h-120.24c-2.32,0-3.49,1.2-3.49,3.6Z"/>
  <path class="cls-1" d="M2539.42,468.68c-3.88,0-6.67,1.9-8.37,5.69l-66.81,157.31h7.79l63.31-149.18,60.42,141.86c2.49,4.88,6.12,7.32,10.92,7.32h7.67l-69.25-163.01h-5.69Z"/>
  <path class="cls-1" d="M2816.48,624.6h-79.7v-155.92h-7.08c-2.49,0-4.31.56-5.47,1.69-1.16,1.12-1.74,2.96-1.74,5.52v155.8h97.59v-3.6c0-2.32-1.2-3.49-3.61-3.49Z"/>
  <path class="cls-1" d="M1502.7,743.96c-12.63-6.43-27.31-9.64-44.04-9.64h-56.34c-2.49,0-4.31.56-5.47,1.69-1.16,1.12-1.74,2.96-1.74,5.52v155.8h64.01c16.35,0,30.8-3.21,43.34-9.64,12.55-6.43,22.38-15.88,29.51-28.35,7.12-12.47,10.69-27.11,10.69-43.92s-3.51-31.12-10.51-43.39c-7.01-12.28-16.84-21.63-29.46-28.06ZM1523.79,845.1c-3.06,9.1-7.48,17-13.24,23.7-5.78,6.7-13.09,11.95-21.97,15.75-8.87,3.79-18.84,5.69-29.92,5.69h-49.26v-148.72h49.26c11.09,0,21.05,1.88,29.92,5.64,8.87,3.75,16.18,8.96,21.97,15.62,5.77,6.66,10.18,14.46,13.24,23.41,3.05,8.94,4.58,18.69,4.58,29.22s-1.53,20.58-4.58,29.68Z"/>
  <path class="cls-1" d="M1781.75,819.72c-.46,14.25-1.9,26.65-4.29,37.18-3.88,14.56-12.82,24.86-26.85,30.91-8.2,3.18-16.84,4.76-25.9,4.76s-16.83-1.44-24.69-4.3c-7.87-2.86-14.01-6.74-18.43-11.62-4.88-5.27-8.13-12.9-9.76-22.89-1.23-6.27-1.86-17.62-1.86-34.04v-85.39h-7.2c-2.39,0-4.18.56-5.34,1.69-1.16,1.12-1.74,2.96-1.74,5.52v88.42c0,11.85.53,20.52,1.63,26.03,1.39,7.83,4.1,14.41,8.13,19.75,11.39,15.96,30.08,23.93,56.11,23.93,22.31,0,39.2-6.23,50.66-18.71,7.13-7.59,11.81-17.74,14.07-30.44,1.78-9.45,2.66-21.15,2.66-35.09v-81.1h-7.2v85.39Z"/>
  <path class="cls-1" d="M2018.74,819.72c-5.11-4.26-11.54-7.24-19.29-8.95,5.28-1.39,9.95-3.79,14.07-7.2,8.37-7.05,12.55-17.12,12.55-30.21s-4.18-22.93-12.55-29.98c-7.2-6.04-16.43-9.06-27.65-9.06h-66.12c-2.47,0-4.29.56-5.45,1.69-1.16,1.12-1.75,2.96-1.75,5.52v155.8h77.15c11.55-.23,21.23-3.64,29.05-10.22,9.38-7.98,14.07-19.17,14.07-33.58s-4.69-25.6-14.07-33.81ZM1926.84,741.52h53.79c8.6.46,15.5,2.98,20.68,7.55,6.97,6.04,10.46,14.52,10.46,25.44s-3.49,19.17-10.46,25.21c-5.96,5.27-13.48,7.9-22.54,7.9h-51.93v-66.11ZM2006.54,881.41c-6.59,5.88-15.23,8.83-25.92,8.83h-53.79v-75.52h53.79c10.62,0,19.25,2.86,25.92,8.6,7.97,6.9,11.96,16.57,11.96,29.05s-3.99,22.38-11.96,29.05Z"/>
  <path class="cls-1" d="M2390.25,736.01c-1.16,1.12-1.75,2.96-1.75,5.52v155.8h14.3v-163.01h-7.09c-2.47,0-4.29.56-5.45,1.69Z"/>
  <path class="cls-1" d="M2205.44,733.22c-3.88,0-6.67,1.9-8.37,5.69l-66.81,157.31h7.79l63.31-149.18,60.42,141.86c2.49,4.88,6.12,7.32,10.92,7.32h7.67l-69.25-163.01h-5.69Z"/>
  <path class="cls-1" d="M966.36,235.45c-51.63-38.08-125.07-57.11-220.27-57.11h-230.7v9.87c15.37,7.33,26.53,19.6,33.5,36.8,6.96,17.22,10.44,42.68,10.44,76.35v494.36c0,34.44-3.48,60.06-10.44,76.92-2.54,6.13-5.64,11.61-9.28,16.47h-27.93c-68.83,0-122.3-15.75-160.4-47.24-38.08-31.49-57.12-79.83-57.12-145.02,0-128.9,74.7-198.48,224.11-208.73v-10.98c-16.85-2.93-35.88-4.4-57.13-4.4-60.04.73-110.96,11-152.7,30.77-41.75,19.78-73.61,46.31-95.58,79.64-21.97,33.33-32.96,73.06-32.96,119.19,0,68.12,25.82,121.21,77.45,159.31,51.63,38.08,125.07,57.11,220.27,57.11h227.81v-9.89c-19.05-8.78-31.13-23.42-36.25-43.93-5.13-20.51-7.69-43.57-7.69-69.23V207.99h50.53c68.83,0,122.3,15.75,160.4,47.24,38.08,31.49,57.12,79.83,57.12,145.02,0,128.9-74.7,198.48-224.11,208.73v10.98c16.85,2.93,35.88,4.4,57.13,4.4,60.04-.73,110.96-11,152.7-30.77,41.75-19.78,73.61-46.31,95.58-79.64,21.97-33.33,32.96-73.06,32.96-119.19,0-68.12-25.82-121.21-77.45-159.31Z"/>
</svg>