<svg id="img-icon" xmlns="http://www.w3.org/2000/svg" width="13.536" height="13.235" viewBox="0 0 13.536 13.235">
  <path id="Path_5" data-name="Path 5" d="M-1437.956,61.65a.44.44,0,0,0,.688.3,5.6,5.6,0,0,1,5.733-.378,6.065,6.065,0,0,0,3.546.72,5.956,5.956,0,0,0,3.062-1.45.446.446,0,0,0,.153-.4l-.343-2.621a.441.441,0,0,0-.7-.292,5.683,5.683,0,0,1-2.646,1.122,6.064,6.064,0,0,1-3.547-.72,5.621,5.621,0,0,0-6.131.671.442.442,0,0,0-.159.4Z" transform="translate(1438.306 -57.32)" fill="#040f20"/>
  <path id="Path_6" data-name="Path 6" d="M-1437.956,69.085a.439.439,0,0,0,.688.3,5.6,5.6,0,0,1,5.733-.377,6.055,6.055,0,0,0,3.546.719,5.945,5.945,0,0,0,3.062-1.449.447.447,0,0,0,.153-.4l-.343-2.622a.441.441,0,0,0-.7-.291,5.692,5.692,0,0,1-2.646,1.121,6.054,6.054,0,0,1-3.547-.719,5.623,5.623,0,0,0-6.131.67.445.445,0,0,0-.159.4Z" transform="translate(1438.306 -56.535)" fill="#040f20"/>
</svg>
